# xmcd
#
# Track frame offsets:
#	150
#	13485
#	28090
#	42262
#	61020
#	74817
#	88307
#	102782
#	117080
#	130827
#	145542
#	158785
#	171640
#	185980
#	200212
#	214317
#	234255
#	247327
#	261537
#	276355
#
# Disc length: 3857 seconds
#
# Revision: 1
# Processed by: cddbd v1.4PL0 Copyright (c) Steve Scherf et al.
# Submitted via: CDmax 2.0
#
DISCID=460f0f14
DTITLE=Leadbelly - My Last Go Round - CD 1
DYEAR=1999
DGENRE=Blues
TTITLE0=Packin' Trunk
TTITLE1=Honey, I'm All Out And Down
TTITLE2=Four Days Worry Blues
TTITLE3=CC Rider
TTITLE4=You Don't Know My Mind
TTITLE5=Death Letter Blues Pt 1
TTITLE6=Death Letter Blues Pt 2
TTITLE7=Kansas City Papa
TTITLE8=Fort Worth And Dallas Blues
TTITLE9=New Black Snake Moan
TTITLE10=Ox Drivin' Blues
TTITLE11=Daddy I'm Coming Back To You
TTITLE12=My Friend Blind Lemon
TTITLE13=Mister Tom Hughes' Town
TTITLE14=Shorty George
TTITLE15=Matchbox Blues
TTITLE16=Yellow Jacket
TTITLE17=T.B. Woman Blues
TTITLE18=Pig Meat Papa
TTITLE19=My Baby Quit Me
EXTD=(Leadbelly)
EXTT0=(Leadbelly)
EXTT1=(Leadbelly)
EXTT2=(Leadbelly)
EXTT3=(Leadbelly)
EXTT4=(Leadbelly)
EXTT5=(Leadbelly/Lomax/Lomax)
EXTT6=(Leadbelly/Lomax/Lomax)
EXTT7=(Leadbelly)
EXTT8=(Leadbelly)
EXTT9=(Leadbelly)
EXTT10=(Leadbelly)
EXTT11=(Leadbelly)
EXTT12=(Leadbelly)
EXTT13=(Leadbelly)
EXTT14=(Leadbelly)
EXTT15=(Leadbelly)
EXTT16=(Leadbelly)
EXTT17=(Leadbelly)
EXTT18=(Leadbelly)
EXTT19=(Leadbelly)
PLAYORDER=
